<svg xmlns="http://www.w3.org/2000/svg" width="1280" height="720" viewBox="0 0 1280 720" font-family="Microsoft YaHei, PingFang SC, sans-serif">
  <title>自动化4.0巡检场景开发启动，为平台升级迭代奠基</title>
  <desc>证据页：3.x、平台底座到自动化4.0的架构演进与里程碑。5月启动巡检场景需求评审、指标库开发；6月10日巡检场景提测（计划），对接权限/审批/日志；7月开展4.0迭代二需求设计、UI设计（进行中）；目标为迁移巡检+网络场景，交付两大重点客户（计划目标）。</desc>
  <rect x="0" y="0" width="1280" height="720" fill="#FFFFFF" />
  <g><rect x="64" y="70" width="14" height="14" fill="#0B74E5" /><rect x="74" y="80" width="14" height="14" fill="#111827" /><text font-size="36" font-weight="bold" fill="#111827" x="102" y="98"><tspan>自动化4.0巡检场景开发启动，为平台升级迭代奠基</tspan></text><text font-size="16" fill="#4B5563" x="102" y="136"><tspan>4.0在底座基础上新增巡检场景，是下半年重点方向</tspan></text><rect x="102" y="150" width="44" height="4" fill="#0B74E5" /></g>
  <g>
    <path d="M76 176 H392 A12 12 0 0 1 404 188 V294 A12 12 0 0 1 392 306 H76 A12 12 0 0 1 64 294 V188 A12 12 0 0 1 76 176 Z" fill="#FFFFFF" stroke="#D8EEFF" stroke-width="2" /><path d="M480 176 H796 A12 12 0 0 1 808 188 V294 A12 12 0 0 1 796 306 H480 A12 12 0 0 1 468 294 V188 A12 12 0 0 1 480 176 Z" fill="#FFFFFF" stroke="#D8EEFF" stroke-width="2" /><path d="M884 176 H1200 A12 12 0 0 1 1212 188 V294 A12 12 0 0 1 1200 306 H884 A12 12 0 0 1 872 294 V188 A12 12 0 0 1 884 176 Z" fill="#EAF5FF" stroke="#0B74E5" stroke-width="2" />
    <path d="M420 219 L452 241 L420 263" fill="none" stroke="#0B74E5" stroke-width="4" /><path d="M824 219 L856 241 L824 263" fill="none" stroke="#0B74E5" stroke-width="4" />
    <text font-size="26" font-weight="bold" fill="#111827" text-anchor="middle" x="234" y="238"><tspan>3.x</tspan></text><text font-size="15" fill="#4B5563" text-anchor="middle" x="234" y="272"><tspan>既有版本</tspan></text><text font-size="26" font-weight="bold" fill="#111827" text-anchor="middle" x="638" y="238"><tspan>平台底座</tspan></text><text font-size="15" fill="#4B5563" text-anchor="middle" x="638" y="272"><tspan>统一支撑能力</tspan></text><text font-size="26" font-weight="bold" fill="#0B74E5" text-anchor="middle" x="1042" y="238"><tspan>自动化4.0</tspan></text><text font-size="15" fill="#4B5563" text-anchor="middle" x="1042" y="272"><tspan>新增巡检场景</tspan></text>
  </g>
  <g>
    <path d="M74 464 H1186" fill="none" stroke="#BFE3FF" stroke-width="3" /><path d="M1180 456 L1198 464 L1180 472 Z" fill="#BFE3FF" />
    <circle cx="74" cy="464" r="7" fill="#FFFFFF" stroke="#0B74E5" stroke-width="3" /><circle cx="370" cy="464" r="7" fill="#FFFFFF" stroke="#0B74E5" stroke-width="3" /><circle cx="666" cy="464" r="7" fill="#FFFFFF" stroke="#0B74E5" stroke-width="3" /><circle cx="962" cy="464" r="8" fill="#0B74E5" />
    <text font-size="22" font-weight="bold" fill="#0B74E5" x="64" y="440"><tspan>5月</tspan></text><text font-size="22" font-weight="bold" fill="#0B74E5" x="360" y="440"><tspan>6月10日</tspan></text><text font-size="22" font-weight="bold" fill="#0B74E5" x="656" y="440"><tspan>7月</tspan></text><text font-size="22" font-weight="bold" fill="#0B74E5" x="952" y="440"><tspan>目标</tspan></text>
    <text font-size="16" fill="#4B5563" x="64" y="508"><tspan>启动巡检场景需求评审</tspan></text><text font-size="16" fill="#4B5563" x="64" y="538"><tspan>指标库开发</tspan></text><text font-size="16" fill="#4B5563" x="360" y="508"><tspan>巡检场景提测（计划）</tspan></text><text font-size="16" fill="#4B5563" x="360" y="538"><tspan>对接权限/审批/日志</tspan></text><text font-size="16" fill="#4B5563" x="656" y="508"><tspan>4.0迭代二需求设计</tspan></text><text font-size="16" fill="#4B5563" x="656" y="538"><tspan>UI设计（进行中）</tspan></text><text font-size="16" fill="#4B5563" x="952" y="508"><tspan>迁移巡检+网络场景</tspan></text><text font-size="16" fill="#4B5563" x="952" y="538"><tspan>交付两大重点客户（计划目标）</tspan></text>
  </g>
</svg>